<svg xmlns="http://www.w3.org/2000/svg" xmlns:xlink="http://www.w3.org/1999/xlink" version="1.1" width="256" height="256" viewBox="0 0 256 256" xml:space="preserve">

<defs>
</defs>
<g style="stroke: none; stroke-width: 0; stroke-dasharray: none; stroke-linecap: butt; stroke-linejoin: miter; stroke-miterlimit: 10; fill: none; fill-rule: nonzero; opacity: 1;" transform="translate(1.4065934065934016 1.4065934065934016) scale(2.81 2.81)" >
	<path d="M 84.139 41.908 h -0.246 v -13.03 c 0 -8.181 -6.655 -14.836 -14.836 -14.836 H 20.943 c -8.181 0 -14.836 6.655 -14.836 14.836 v 13.03 H 5.861 C 2.629 41.908 0 44.537 0 47.769 v 18.539 v 9.349 c 0 0.553 0.448 1 1 1 h 9.349 c 0.552 0 1 -0.447 1 -1 v -8.349 h 67.303 v 8.349 c 0 0.553 0.447 1 1 1 H 89 c 0.553 0 1 -0.447 1 -1 v -9.349 V 47.769 C 90 44.537 87.371 41.908 84.139 41.908 z M 8.107 28.878 c 0 -7.078 5.758 -12.836 12.836 -12.836 h 48.113 c 7.078 0 12.836 5.758 12.836 12.836 v 13.03 h -6.065 v -3.726 c 0 -3.432 -2.792 -6.224 -6.224 -6.224 H 53.396 c -3.432 0 -6.224 2.792 -6.224 6.224 v 3.726 h -4.346 v -3.726 c 0 -3.432 -2.792 -6.224 -6.224 -6.224 H 20.397 c -3.432 0 -6.224 2.792 -6.224 6.224 v 3.726 H 8.107 V 28.878 z M 73.827 41.908 H 49.173 v -3.726 c 0 -2.329 1.895 -4.224 4.224 -4.224 h 16.207 c 2.329 0 4.224 1.895 4.224 4.224 V 41.908 z M 40.827 41.908 H 16.173 v -3.726 c 0 -2.329 1.895 -4.224 4.224 -4.224 h 16.206 c 2.329 0 4.224 1.895 4.224 4.224 V 41.908 z M 2 47.769 c 0 -2.129 1.732 -3.861 3.861 -3.861 h 1.246 h 8.065 h 26.654 h 6.346 h 26.654 h 8.065 h 1.246 c 2.129 0 3.861 1.732 3.861 3.861 v 17.539 h -8.349 H 10.349 H 2 V 47.769 z M 9.349 74.656 H 2 v -7.349 h 7.349 V 74.656 z M 88 74.656 h -7.349 v -7.349 H 88 V 74.656 z" style="stroke: none; stroke-width: 1; stroke-dasharray: none; stroke-linecap: butt; stroke-linejoin: miter; stroke-miterlimit: 10; fill: rgb(0,0,0); fill-rule: nonzero; opacity: 1;" transform=" matrix(1 0 0 1 0 0) " stroke-linecap="round" />
	<path d="M 81.023 57.583 c 0 -0.553 -0.447 -1 -1 -1 H 9.977 c -0.552 0 -1 0.447 -1 1 s 0.448 1 1 1 h 70.047 C 80.576 58.583 81.023 58.136 81.023 57.583 z" style="stroke: none; stroke-width: 1; stroke-dasharray: none; stroke-linecap: butt; stroke-linejoin: miter; stroke-miterlimit: 10; fill: rgb(0,0,0); fill-rule: nonzero; opacity: 1;" transform=" matrix(1 0 0 1 0 0) " stroke-linecap="round" />
</g>
</svg>