<svg xmlns="http://www.w3.org/2000/svg" xmlns:xlink="http://www.w3.org/1999/xlink" version="1.1" width="256" height="256" viewBox="0 0 256 256" xml:space="preserve">

<defs>
</defs>
<g style="stroke: none; stroke-width: 0; stroke-dasharray: none; stroke-linecap: butt; stroke-linejoin: miter; stroke-miterlimit: 10; fill: none; fill-rule: nonzero; opacity: 1;" transform="translate(1.4065934065934016 1.4065934065934016) scale(2.81 2.81)" >
	<path d="M 73.25 90 H 22.683 c -5.87 0 -10.646 -4.775 -10.646 -10.646 s 4.775 -10.646 10.646 -10.646 h 41.798 c 0.553 0 1 0.447 1 1 s -0.447 1 -1 1 H 22.683 c -4.767 0 -8.646 3.878 -8.646 8.646 S 17.916 88 22.683 88 H 73.25 c 0.553 0 1 0.447 1 1 S 73.803 90 73.25 90 z" style="stroke: none; stroke-width: 1; stroke-dasharray: none; stroke-linecap: butt; stroke-linejoin: miter; stroke-miterlimit: 10; fill: rgb(0,0,0); fill-rule: nonzero; opacity: 1;" transform=" matrix(1 0 0 1 0 0) " stroke-linecap="round" />
	<path d="M 13.038 80.354 c -0.552 0 -1 -0.447 -1 -1 V 10.788 C 12.038 4.839 16.877 0 22.826 0 H 73.25 c 2.599 0 4.713 2.114 4.713 4.712 v 61.285 c 0 2.599 -2.114 4.712 -4.713 4.712 h -8.769 c -0.553 0 -1 -0.447 -1 -1 s 0.447 -1 1 -1 h 8.769 c 1.496 0 2.713 -1.217 2.713 -2.712 V 4.712 C 75.963 3.217 74.746 2 73.25 2 H 22.826 c -4.846 0 -8.788 3.942 -8.788 8.788 v 68.566 C 14.038 79.907 13.59 80.354 13.038 80.354 z" style="stroke: none; stroke-width: 1; stroke-dasharray: none; stroke-linecap: butt; stroke-linejoin: miter; stroke-miterlimit: 10; fill: rgb(0,0,0); fill-rule: nonzero; opacity: 1;" transform=" matrix(1 0 0 1 0 0) " stroke-linecap="round" />
	<path d="M 22.683 61.553 c -0.552 0 -1 -0.447 -1 -1 v -41.24 c 0 -0.552 0.448 -1 1 -1 s 1 0.448 1 1 v 41.24 C 23.683 61.105 23.235 61.553 22.683 61.553 z" style="stroke: none; stroke-width: 1; stroke-dasharray: none; stroke-linecap: butt; stroke-linejoin: miter; stroke-miterlimit: 10; fill: rgb(0,0,0); fill-rule: nonzero; opacity: 1;" transform=" matrix(1 0 0 1 0 0) " stroke-linecap="round" />
	<path d="M 73.25 80.354 H 22.683 c -0.552 0 -1 -0.447 -1 -1 s 0.448 -1 1 -1 H 73.25 c 1.496 0 2.713 -1.217 2.713 -2.712 c 0 -0.553 0.447 -1 1 -1 s 1 0.447 1 1 C 77.963 78.241 75.849 80.354 73.25 80.354 z" style="stroke: none; stroke-width: 1; stroke-dasharray: none; stroke-linecap: butt; stroke-linejoin: miter; stroke-miterlimit: 10; fill: rgb(0,0,0); fill-rule: nonzero; opacity: 1;" transform=" matrix(1 0 0 1 0 0) " stroke-linecap="round" />
	<path d="M 22.683 11.361 c -0.552 0 -1 -0.448 -1 -1 V 1 c 0 -0.552 0.448 -1 1 -1 s 1 0.448 1 1 v 9.361 C 23.683 10.914 23.235 11.361 22.683 11.361 z" style="stroke: none; stroke-width: 1; stroke-dasharray: none; stroke-linecap: butt; stroke-linejoin: miter; stroke-miterlimit: 10; fill: rgb(0,0,0); fill-rule: nonzero; opacity: 1;" transform=" matrix(1 0 0 1 0 0) " stroke-linecap="round" />
	<path d="M 73.25 90 c -0.553 0 -1 -0.447 -1 -1 s 0.447 -1 1 -1 c 1.496 0 2.713 -1.217 2.713 -2.712 c 0 -0.553 0.447 -1 1 -1 s 1 0.447 1 1 C 77.963 87.887 75.849 90 73.25 90 z" style="stroke: none; stroke-width: 1; stroke-dasharray: none; stroke-linecap: butt; stroke-linejoin: miter; stroke-miterlimit: 10; fill: rgb(0,0,0); fill-rule: nonzero; opacity: 1;" transform=" matrix(1 0 0 1 0 0) " stroke-linecap="round" />
</g>
</svg>