<svg xmlns="http://www.w3.org/2000/svg" xmlns:xlink="http://www.w3.org/1999/xlink" version="1.1" width="256" height="256" viewBox="0 0 256 256" xml:space="preserve">

<defs>
</defs>
<g style="stroke: none; stroke-width: 0; stroke-dasharray: none; stroke-linecap: butt; stroke-linejoin: miter; stroke-miterlimit: 10; fill: none; fill-rule: nonzero; opacity: 1;" transform="translate(1.4065934065934016 1.4065934065934016) scale(2.81 2.81)" >
	<path d="M 24.862 68.195 c -4.206 0 -7.628 -3.422 -7.628 -7.629 c 0 -4.206 3.422 -7.628 7.628 -7.628 s 7.629 3.422 7.629 7.628 C 32.491 64.773 29.068 68.195 24.862 68.195 z M 24.862 55.905 c -2.57 0 -4.661 2.091 -4.661 4.661 c 0 2.571 2.091 4.662 4.661 4.662 c 2.571 0 4.662 -2.091 4.662 -4.662 C 29.524 57.996 27.432 55.905 24.862 55.905 z" style="stroke: none; stroke-width: 1; stroke-dasharray: none; stroke-linecap: butt; stroke-linejoin: miter; stroke-miterlimit: 10; fill: rgb(0,0,0); fill-rule: nonzero; opacity: 1;" transform=" matrix(1 0 0 1 0 0) " stroke-linecap="round" />
	<path d="M 65.138 68.195 c -4.206 0 -7.628 -3.422 -7.628 -7.629 c 0 -4.206 3.422 -7.628 7.628 -7.628 c 4.207 0 7.629 3.422 7.629 7.628 C 72.767 64.773 69.345 68.195 65.138 68.195 z M 65.138 55.905 c -2.57 0 -4.661 2.091 -4.661 4.661 c 0 2.571 2.091 4.662 4.661 4.662 c 2.571 0 4.662 -2.091 4.662 -4.662 C 69.8 57.996 67.709 55.905 65.138 55.905 z" style="stroke: none; stroke-width: 1; stroke-dasharray: none; stroke-linecap: butt; stroke-linejoin: miter; stroke-miterlimit: 10; fill: rgb(0,0,0); fill-rule: nonzero; opacity: 1;" transform=" matrix(1 0 0 1 0 0) " stroke-linecap="round" />
	<path d="M 86.997 9.997 H 79.89 h -0.071 v -4.22 C 79.818 2.592 77.226 0 74.041 0 H 15.959 c -3.186 0 -5.778 2.592 -5.778 5.778 v 4.22 H 10.11 H 3.003 c -0.82 0 -1.484 0.664 -1.484 1.484 v 15.103 c 0 0.82 0.664 1.484 1.484 1.484 s 1.484 -0.664 1.484 -1.484 v -13.62 h 5.624 h 0.071 v 58.128 c 0 3.185 2.592 5.777 5.778 5.777 h 0.414 v 8.098 c 0 2.776 2.258 5.034 5.033 5.034 h 6.912 c 2.775 0 5.033 -2.258 5.033 -5.034 v -8.098 h 23.296 v 8.098 c 0 2.776 2.258 5.034 5.034 5.034 h 6.912 c 2.775 0 5.033 -2.258 5.033 -5.034 v -8.098 h 0.413 c 3.185 0 5.778 -2.591 5.778 -5.777 V 12.964 h 0.071 h 5.624 v 13.62 c 0 0.82 0.664 1.484 1.484 1.484 s 1.484 -0.664 1.484 -1.484 V 11.481 C 88.481 10.661 87.816 9.997 86.997 9.997 z M 13.148 5.778 c 0 -1.55 1.261 -2.811 2.811 -2.811 h 58.082 c 1.55 0 2.811 1.261 2.811 2.811 v 4.22 H 13.148 V 5.778 z M 30.385 84.966 c 0 1.14 -0.927 2.067 -2.066 2.067 h -6.912 c -1.139 0 -2.066 -0.927 -2.066 -2.067 v -8.098 h 11.045 V 84.966 z M 70.66 84.966 c 0 1.14 -0.927 2.067 -2.066 2.067 h -6.912 c -1.14 0 -2.067 -0.927 -2.067 -2.067 v -8.098 H 70.66 V 84.966 z M 74.041 73.902 H 15.959 c -1.55 0 -2.811 -1.26 -2.811 -2.81 v -24.96 h 63.703 v 24.96 C 76.851 72.641 75.591 73.902 74.041 73.902 z M 76.851 43.165 H 13.148 V 12.964 h 63.703 V 43.165 z" style="stroke: none; stroke-width: 1; stroke-dasharray: none; stroke-linecap: butt; stroke-linejoin: miter; stroke-miterlimit: 10; fill: rgb(0,0,0); fill-rule: nonzero; opacity: 1;" transform=" matrix(1 0 0 1 0 0) " stroke-linecap="round" />
	<path d="M 50.21 62.05 H 39.79 c -0.82 0 -1.484 -0.664 -1.484 -1.484 c 0 -0.819 0.664 -1.484 1.484 -1.484 h 10.42 c 0.819 0 1.484 0.664 1.484 1.484 C 51.693 61.385 51.029 62.05 50.21 62.05 z" style="stroke: none; stroke-width: 1; stroke-dasharray: none; stroke-linecap: butt; stroke-linejoin: miter; stroke-miterlimit: 10; fill: rgb(0,0,0); fill-rule: nonzero; opacity: 1;" transform=" matrix(1 0 0 1 0 0) " stroke-linecap="round" />
</g>
</svg>