<svg id="svg" xmlns="http://www.w3.org/2000/svg" xmlns:xlink="http://www.w3.org/1999/xlink" width="400" height="400" viewBox="0, 0, 400,400"><g id="svgg"><path id="path0" d="M36.016 9.784 C 11.467 23.104,-0.000 49.739,-0.000 93.440 L 0.000 131.250 53.971 131.250 C 103.511 131.250,109.130 132.533,122.422 146.875 C 148.374 174.878,193.750 158.974,193.750 121.875 C 193.750 84.776,148.374 68.872,122.422 96.875 C 109.780 110.517,102.678 112.500,66.471 112.500 L 25.000 112.500 25.000 90.919 C 25.000 30.038,38.375 25.000,200.000 25.000 C 363.232 25.000,375.000 29.643,375.000 94.044 C 375.000 114.583,377.108 118.750,387.500 118.750 C 418.574 118.750,397.909 27.686,362.705 9.481 C 336.159 -4.247,61.404 -3.992,36.016 9.784 M167.578 120.403 C 170.065 133.319,152.023 142.023,142.500 132.500 C 132.977 122.977,141.681 104.935,154.597 107.422 C 160.583 108.575,166.425 114.417,167.578 120.403 M300.159 156.091 C 254.909 201.341,285.659 256.250,356.250 256.250 L 400.000 256.250 400.000 200.000 L 400.000 143.750 356.250 143.750 C 321.021 143.750,310.096 146.154,300.159 156.091 M16.594 173.930 C 2.933 189.024,3.448 214.277,17.680 227.156 C 33.400 241.384,64.296 240.281,78.125 225.000 C 88.274 213.786,97.375 212.500,166.594 212.500 C 239.583 212.500,243.750 211.825,243.750 200.000 C 243.750 188.175,239.583 187.500,166.594 187.500 C 97.375 187.500,88.274 186.214,78.125 175.000 C 63.738 159.102,30.535 158.525,16.594 173.930 M375.000 200.818 L 375.000 239.136 351.936 235.393 C 287.984 225.015,295.409 165.293,360.938 162.993 C 374.045 162.533,375.000 165.101,375.000 200.818 M60.939 198.434 C 64.357 208.698,44.774 216.024,36.374 207.624 C 32.780 204.030,31.825 197.876,34.252 193.949 C 39.775 185.013,57.461 187.986,60.939 198.434 M122.422 253.125 C 109.130 267.467,103.511 268.750,53.971 268.750 L 0.000 268.750 0.000 306.560 C 0.000 393.555,13.816 400.000,200.288 400.000 C 358.605 400.000,368.663 397.996,389.778 362.251 C 405.352 335.886,403.816 281.250,387.500 281.250 C 377.108 281.250,375.000 285.417,375.000 305.956 C 375.000 370.357,363.232 375.000,200.000 375.000 C 38.375 375.000,25.000 369.962,25.000 309.081 L 25.000 287.500 66.471 287.500 C 102.678 287.500,109.780 289.483,122.422 303.125 C 148.374 331.128,193.750 315.224,193.750 278.125 C 193.750 241.026,148.374 225.122,122.422 253.125 M167.578 276.653 C 170.065 289.569,152.023 298.273,142.500 288.750 C 132.977 279.227,141.681 261.185,154.597 263.672 C 160.583 264.825,166.425 270.667,167.578 276.653 " stroke="none" fill="#000000" fill-rule="evenodd"></path></g></svg>