<svg xmlns="http://www.w3.org/2000/svg" xmlns:xlink="http://www.w3.org/1999/xlink" version="1.1" width="256" height="256" viewBox="0 0 256 256" xml:space="preserve">

<defs>
</defs>
<g style="stroke: none; stroke-width: 0; stroke-dasharray: none; stroke-linecap: butt; stroke-linejoin: miter; stroke-miterlimit: 10; fill: none; fill-rule: nonzero; opacity: 1;" transform="translate(1.4065934065934016 1.4065934065934016) scale(2.81 2.81)" >
	<path d="M 78.257 75.777 H 7.542 C 3.383 75.777 0 72.395 0 68.236 V 21.764 c 0 -4.158 3.383 -7.542 7.542 -7.542 h 70.715 c 4.158 0 7.541 3.383 7.541 7.542 v 14.617 c 0 0.552 -0.447 1 -1 1 s -1 -0.448 -1 -1 V 21.764 c 0 -3.056 -2.485 -5.542 -5.541 -5.542 H 7.542 C 4.486 16.223 2 18.708 2 21.764 v 46.472 c 0 3.056 2.486 5.541 5.542 5.541 h 70.715 c 3.056 0 5.541 -2.485 5.541 -5.541 V 53.618 c 0 -0.553 0.447 -1 1 -1 s 1 0.447 1 1 v 14.618 C 85.798 72.395 82.415 75.777 78.257 75.777 z" style="stroke: none; stroke-width: 1; stroke-dasharray: none; stroke-linecap: butt; stroke-linejoin: miter; stroke-miterlimit: 10; fill: rgb(0,0,0); fill-rule: nonzero; opacity: 1;" transform=" matrix(1 0 0 1 0 0) " stroke-linecap="round" />
	<path d="M 86.32 54.618 H 64.237 c -5.304 0 -9.618 -4.314 -9.618 -9.618 s 4.314 -9.619 9.618 -9.619 H 86.32 c 2.029 0 3.68 1.651 3.68 3.68 v 11.877 C 90 52.968 88.35 54.618 86.32 54.618 z M 64.237 37.381 c -4.2 0 -7.618 3.417 -7.618 7.619 c 0 4.2 3.418 7.618 7.618 7.618 H 86.32 c 0.926 0 1.68 -0.754 1.68 -1.68 V 39.061 c 0 -0.926 -0.754 -1.68 -1.68 -1.68 H 64.237 z" style="stroke: none; stroke-width: 1; stroke-dasharray: none; stroke-linecap: butt; stroke-linejoin: miter; stroke-miterlimit: 10; fill: rgb(0,0,0); fill-rule: nonzero; opacity: 1;" transform=" matrix(1 0 0 1 0 0) " stroke-linecap="round" />
	<path d="M 12.952 49.093 c -0.552 0 -1 -0.447 -1 -1 v -32.87 c 0 -0.552 0.448 -1 1 -1 s 1 0.448 1 1 v 32.87 C 13.952 48.646 13.504 49.093 12.952 49.093 z" style="stroke: none; stroke-width: 1; stroke-dasharray: none; stroke-linecap: butt; stroke-linejoin: miter; stroke-miterlimit: 10; fill: rgb(0,0,0); fill-rule: nonzero; opacity: 1;" transform=" matrix(1 0 0 1 0 0) " stroke-linecap="round" />
	<path d="M 44.797 74.65 c -0.552 0 -1 -0.447 -1 -1 V 57.186 c 0 -0.553 0.448 -1 1 -1 s 1 0.447 1 1 V 73.65 C 45.797 74.203 45.349 74.65 44.797 74.65 z" style="stroke: none; stroke-width: 1; stroke-dasharray: none; stroke-linecap: butt; stroke-linejoin: miter; stroke-miterlimit: 10; fill: rgb(0,0,0); fill-rule: nonzero; opacity: 1;" transform=" matrix(1 0 0 1 0 0) " stroke-linecap="round" />
	<path d="M 12.952 56.693 c -2.647 0 -4.8 -2.153 -4.8 -4.8 c 0 -2.647 2.153 -4.801 4.8 -4.801 s 4.801 2.153 4.801 4.801 C 17.752 54.54 15.599 56.693 12.952 56.693 z M 12.952 49.093 c -1.544 0 -2.8 1.257 -2.8 2.801 s 1.256 2.8 2.8 2.8 c 1.544 0 2.801 -1.256 2.801 -2.8 S 14.496 49.093 12.952 49.093 z" style="stroke: none; stroke-width: 1; stroke-dasharray: none; stroke-linecap: butt; stroke-linejoin: miter; stroke-miterlimit: 10; fill: rgb(0,0,0); fill-rule: nonzero; opacity: 1;" transform=" matrix(1 0 0 1 0 0) " stroke-linecap="round" />
	<path d="M 29.004 75.777 c -0.552 0 -1 -0.447 -1 -1 V 38.724 c 0 -0.552 0.448 -1 1 -1 s 1 0.448 1 1 v 36.054 C 30.004 75.33 29.556 75.777 29.004 75.777 z" style="stroke: none; stroke-width: 1; stroke-dasharray: none; stroke-linecap: butt; stroke-linejoin: miter; stroke-miterlimit: 10; fill: rgb(0,0,0); fill-rule: nonzero; opacity: 1;" transform=" matrix(1 0 0 1 0 0) " stroke-linecap="round" />
	<path d="M 29.004 39.724 c -2.647 0 -4.801 -2.154 -4.801 -4.801 s 2.154 -4.8 4.801 -4.8 s 4.8 2.153 4.8 4.8 S 31.651 39.724 29.004 39.724 z M 29.004 32.123 c -1.544 0 -2.801 1.256 -2.801 2.8 c 0 1.544 1.256 2.801 2.801 2.801 c 1.544 0 2.8 -1.256 2.8 -2.801 C 31.804 33.379 30.548 32.123 29.004 32.123 z" style="stroke: none; stroke-width: 1; stroke-dasharray: none; stroke-linecap: butt; stroke-linejoin: miter; stroke-miterlimit: 10; fill: rgb(0,0,0); fill-rule: nonzero; opacity: 1;" transform=" matrix(1 0 0 1 0 0) " stroke-linecap="round" />
	<path d="M 44.797 58.186 c -2.647 0 -4.8 -2.153 -4.8 -4.801 s 2.153 -4.801 4.8 -4.801 c 2.647 0 4.801 2.153 4.801 4.801 S 47.444 58.186 44.797 58.186 z M 44.797 50.584 c -1.544 0 -2.8 1.257 -2.8 2.801 s 1.256 2.801 2.8 2.801 s 2.801 -1.257 2.801 -2.801 S 46.341 50.584 44.797 50.584 z" style="stroke: none; stroke-width: 1; stroke-dasharray: none; stroke-linecap: butt; stroke-linejoin: miter; stroke-miterlimit: 10; fill: rgb(0,0,0); fill-rule: nonzero; opacity: 1;" transform=" matrix(1 0 0 1 0 0) " stroke-linecap="round" />
	<path d="M 12.952 75.777 c -0.552 0 -1 -0.447 -1 -1 v -6.727 c 0 -1.61 -1.311 -2.92 -2.921 -2.92 l -7.963 0.193 c -0.576 -0.014 -1.011 -0.424 -1.024 -0.976 c -0.014 -0.553 0.423 -1.011 0.975 -1.024 l 7.988 -0.193 c 2.738 0 4.945 2.207 4.945 4.92 v 6.727 C 13.952 75.33 13.504 75.777 12.952 75.777 z" style="stroke: none; stroke-width: 1; stroke-dasharray: none; stroke-linecap: butt; stroke-linejoin: miter; stroke-miterlimit: 10; fill: rgb(0,0,0); fill-rule: nonzero; opacity: 1;" transform=" matrix(1 0 0 1 0 0) " stroke-linecap="round" />
	<path d="M 51.818 24.932 c -0.553 0 -1 -0.448 -1 -1 v -8.709 c 0 -0.552 0.447 -1 1 -1 s 1 0.448 1 1 v 8.709 C 52.818 24.484 52.371 24.932 51.818 24.932 z" style="stroke: none; stroke-width: 1; stroke-dasharray: none; stroke-linecap: butt; stroke-linejoin: miter; stroke-miterlimit: 10; fill: rgb(0,0,0); fill-rule: nonzero; opacity: 1;" transform=" matrix(1 0 0 1 0 0) " stroke-linecap="round" />
	<path d="M 51.818 32.533 c -2.647 0 -4.801 -2.153 -4.801 -4.8 s 2.153 -4.801 4.801 -4.801 s 4.801 2.154 4.801 4.801 S 54.466 32.533 51.818 32.533 z M 51.818 24.932 c -1.544 0 -2.801 1.256 -2.801 2.801 c 0 1.544 1.257 2.8 2.801 2.8 s 2.801 -1.256 2.801 -2.8 C 54.619 26.188 53.362 24.932 51.818 24.932 z" style="stroke: none; stroke-width: 1; stroke-dasharray: none; stroke-linecap: butt; stroke-linejoin: miter; stroke-miterlimit: 10; fill: rgb(0,0,0); fill-rule: nonzero; opacity: 1;" transform=" matrix(1 0 0 1 0 0) " stroke-linecap="round" />
	<path d="M 67.807 49.801 c -2.647 0 -4.801 -2.153 -4.801 -4.801 c 0 -2.647 2.153 -4.801 4.801 -4.801 s 4.801 2.154 4.801 4.801 C 72.607 47.647 70.454 49.801 67.807 49.801 z M 67.807 42.199 c -1.544 0 -2.801 1.256 -2.801 2.801 c 0 1.544 1.257 2.801 2.801 2.801 s 2.801 -1.257 2.801 -2.801 C 70.607 43.456 69.351 42.199 67.807 42.199 z" style="stroke: none; stroke-width: 1; stroke-dasharray: none; stroke-linecap: butt; stroke-linejoin: miter; stroke-miterlimit: 10; fill: rgb(0,0,0); fill-rule: nonzero; opacity: 1;" transform=" matrix(1 0 0 1 0 0) " stroke-linecap="round" />
</g>
</svg>