<?xml version="1.0" encoding="utf-8"?>
<!-- Generator: Adobe Illustrator 24.0.2, SVG Export Plug-In . SVG Version: 6.00 Build 0)  -->
<svg version="1.1" id="Layer_1" xmlns="http://www.w3.org/2000/svg" xmlns:xlink="http://www.w3.org/1999/xlink" x="0px" y="0px"
	 viewBox="0 0 48 48" style="enable-background:new 0 0 48 48;" xml:space="preserve">
<style type="text/css">
	.st0{fill-rule:evenodd;clip-rule:evenodd;}
</style>
<path class="st0" d="M39.7,41c0,1.4-1.2,2-2.6,2h-2.6c-1.5,0-2.6-0.6-2.6-2v-2.5c0-2.8-2.3-5.6-5.3-5.6h-5.3c-2.9,0-5.3,2.8-5.3,5.6
	V41c0,1.4-1.2,2-2.6,2h-2.6c-1.4,0-2.6-0.6-2.6-2V20.6c0-0.3,0.1-0.7,0.4-0.9l13.5-13c1-1,2.7-1,3.7,0l13.5,13
	c0.2,0.2,0.4,0.6,0.4,0.9V41L39.7,41z M45,19.3c0-0.7-0.3-1.3-0.8-1.8l-16.5-16c-2.1-2-5.3-2-7.4,0L3.8,17.3C3.3,17.8,3,18.4,3,19.1
	v24.4C3,46.3,5.3,48,8.3,48h7.9c2.9,0,5.3-1.7,5.3-4.5V41c0-1.4,1.2-2.5,2.6-2.5c1.5,0,2.6,1.1,2.6,2.5v2.5c0,2.8,2.3,4.5,5.3,4.5
	h7.9c2.9,0,5.3-1.7,5.3-4.5L45,19.3L45,19.3z"/>
</svg>
