<?xml version="1.0" encoding="UTF-8" standalone="no"?>
<!-- Created with Inkscape (http://www.inkscape.org/) -->

<svg
   version="1.1"
   id="svg2"
   width="64"
   height="64"
   viewBox="0 0 64 64"
   sodipodi:docname="settings.ai"
   xmlns:inkscape="http://www.inkscape.org/namespaces/inkscape"
   xmlns:sodipodi="http://sodipodi.sourceforge.net/DTD/sodipodi-0.dtd"
   xmlns="http://www.w3.org/2000/svg"
   xmlns:svg="http://www.w3.org/2000/svg">
  <defs
     id="defs6">
    <clipPath
       clipPathUnits="userSpaceOnUse"
       id="clipPath16">
      <path
         d="M 0,48 H 48 V 0 H 0 Z"
         id="path14" />
    </clipPath>
  </defs>
  <sodipodi:namedview
     id="namedview4"
     pagecolor="#ffffff"
     bordercolor="#000000"
     borderopacity="0.25"
     inkscape:showpageshadow="2"
     inkscape:pageopacity="0.0"
     inkscape:pagecheckerboard="0"
     inkscape:deskcolor="#d1d1d1" />
  <g
     id="g8"
     inkscape:groupmode="layer"
     inkscape:label="settings"
     transform="matrix(1.3333333,0,0,-1.3333333,0,64)">
    <g
       id="g10">
      <g
         id="g12"
         clip-path="url(#clipPath16)">
        <g
           id="g18"
           transform="translate(42,14.8115)">
          <path
             d="m 0,0 v 18.377 c 0,0.6 -0.301,1.099 -0.802,1.398 l -16.446,9.189 c -0.502,0.299 -1.103,0.299 -1.504,0 L -35.198,19.775 C -35.699,19.476 -36,18.977 -36,18.377 V 0 c 0,-0.6 0.301,-1.099 0.802,-1.398 l 16.446,-9.189 c 0.502,-0.3 1.103,-0.3 1.504,0 l 16.446,9.189 C -0.301,-1.099 0,-0.599 0,0 Z"
             style="fill:none;stroke:#000000;stroke-width:4;stroke-linecap:round;stroke-linejoin:round;stroke-miterlimit:2.276;stroke-dasharray:none;stroke-opacity:1"
             id="path20" />
        </g>
        <g
           id="g22"
           transform="translate(23.9497,31.9902)">
          <path
             d="m 0,0 c 4.431,0 8.022,-3.577 8.022,-7.99 0,-4.413 -3.591,-7.99 -8.022,-7.99 -4.431,0 -8.022,3.577 -8.022,7.99 C -8.022,-3.577 -4.431,0 0,0 Z"
             style="fill:none;stroke:#000000;stroke-width:4;stroke-linecap:round;stroke-linejoin:round;stroke-miterlimit:2.276;stroke-dasharray:none;stroke-opacity:1"
             id="path24" />
        </g>
      </g>
    </g>
  </g>
</svg>
